- 
http://www.Speed.Cd      fast  and The Hottest Private Tracker on the net

Please Seed back to make the speed Faster!!!

------------------nfo--------------------------
-[img]http://img402.imageshack.us/img402/7042/margincallver8.jpg[/img]

Margin.Call.2011.R5.XviD.AC3-EMBER
 
http://www.imdb.com/title/tt1615147 

Plot:
A thriller that revolves around the key people at a investment bank over a 24-hour period during the early stages of the financial crisis. 

Video Source                     : Predel.riska.2011.D.DVD.ELEKTRI4KA Thanks
Audio Source                     : Hive-CM8 Thanks ;) 

General
Format                           : AVI
Format/Info                      : Audio Video Interleave
File size                        : 1.39 GiB
Duration                         : 1h 42mn
Overall bit rate                 : 1 947 Kbps
Writing application              : VirtualDubMod 1.5.10.2 (build 2540/release)
Writing library                  : VirtualDubMod build 2540/release

Video
ID                               : 0
Format                           : MPEG-4 Visual
Format profile                   : Advanced Simple@L5
Format settings, BVOP            : 2
Format settings, QPel            : No
Format settings, GMC             : No warppoints
Format settings, Matrix          : Default (H.263)
Muxing mode                      : Packed bitstream
Codec ID                         : XVID
Codec ID/Hint                    : XviD
Duration                         : 1h 42mn
Bit rate                         : 1 553 Kbps
Width                            : 720 pixels
Height                           : 384 pixels
Display aspect ratio             : 1.875
Frame rate                       : 25.000 fps
Color space                      : YUV
Chroma subsampling               : 4:2:0
Bit depth                        : 8 bits
Scan type                        : Progressive
Compression mode                 : Lossy
Bits/(Pixel*Frame)               : 0.225
Stream size                      : 1.11 GiB (80%)
Writing library                  : XviD 64

Audio
ID                               : 1
Format                           : AC-3
Format/Info                      : Audio Coding 3
Mode extension                   : CM (complete main)
Codec ID                         : 2000
Duration                         : 1h 42mn
Bit rate mode                    : Constant
Bit rate                         : 384 Kbps
Channel(s)                       : 6 channels
Channel positions                : Front: L C R, Side: L R, LFE
Sampling rate                    : 48.0 KHz
Bit depth                        : 16 bits
Compression mode                 : Lossy
Stream size                      : 281 MiB (20%)
Alignment                        : Split accross interleaves
Interleave, duration             : 40 ms (1.00 video frame)
Interleave, preload duration     : 500 ms

Notes
Cropped, resized, altered levels very slightly, and sharpened

Screens
[img]http://img405.imageshack.us/img405/5374/46111620.png[/img]
[img]http://img810.imageshack.us/img810/5154/64141707.png[/img]
[img]http://img197.imageshack.us/img197/7356/27726831.png[/img]
[img]http://img810.imageshack.us/img810/2504/23500275.png[/img]

Greetz to 

SHiRK, SHK, LKRG, UnKnOwN, IMAGiNE, SiC, BHRG, TaRiQ786, FLAWL3SS, Rx

SAMURAi, ViSUALiSE, RemixHD, iNSANE, DTRG. Hive-CM8

And to all other groups past and present

Got something to offer?

then you should know where to find us